<svg width="233" height="92" viewBox="0 0 233 92" fill="none" xmlns="http://www.w3.org/2000/svg">
<path d="M0.113219 91.976H13.9132V66.216H14.0972C17.2252 70.54 22.5612 72.104 28.2652 72.104C40.9612 72.104 48.6892 60.696 48.6892 48.276C48.6892 34.752 39.9492 25.184 26.7012 25.184C20.4452 25.184 15.1092 28.956 12.9932 32.176H12.8092V26.288H0.113219V91.976ZM12.8092 48.644C12.8092 41.928 16.9492 37.328 23.8492 37.328C30.7492 37.328 34.8892 41.928 34.8892 48.644C34.8892 55.36 30.7492 59.96 23.8492 59.96C16.9492 59.96 12.8092 55.36 12.8092 48.644ZM59.5584 71H73.3584V37.328H83.5704V26.288H73.3584V19.204C73.3584 13.316 75.5664 11.936 79.9824 11.936C81.6384 11.936 82.9264 12.304 84.4904 12.856L85.1344 1.17199C82.5584 0.527997 79.7984 0.343999 77.0384 0.343999C62.0424 0.343999 59.5584 8.624 59.5584 18.376V26.288H50.4504V37.328H59.5584V71ZM85.1692 48.644C85.1692 62.904 96.2092 72.104 110.009 72.104C123.809 72.104 134.849 62.904 134.849 48.644C134.849 34.384 123.809 25.184 110.009 25.184C96.2092 25.184 85.1692 34.384 85.1692 48.644ZM98.9692 48.644C98.9692 41.928 103.109 37.328 110.009 37.328C116.909 37.328 121.049 41.928 121.049 48.644C121.049 55.36 116.909 59.96 110.009 59.96C103.109 59.96 98.9692 55.36 98.9692 48.644ZM141.162 71H154.962V1.448H141.162V71ZM163.06 71H176.86V26.288H163.06V71ZM161.956 12.212C161.956 16.628 165.544 20.216 169.96 20.216C174.376 20.216 177.964 16.628 177.964 12.212C177.964 7.796 174.376 4.208 169.96 4.208C165.544 4.208 161.956 7.796 161.956 12.212ZM183.118 48.644C183.118 62.904 194.158 72.104 207.958 72.104C221.758 72.104 232.798 62.904 232.798 48.644C232.798 34.384 221.758 25.184 207.958 25.184C194.158 25.184 183.118 34.384 183.118 48.644ZM196.918 48.644C196.918 41.928 201.058 37.328 207.958 37.328C214.858 37.328 218.998 41.928 218.998 48.644C218.998 55.36 214.858 59.96 207.958 59.96C201.058 59.96 196.918 55.36 196.918 48.644Z" fill="url(#paint0_linear_25_2)"/>
<defs>
<linearGradient id="paint0_linear_25_2" x1="-21" y1="25.8258" x2="366.688" y2="89.7109" gradientUnits="userSpaceOnUse">
<stop stop-color="#FF5964"/>
<stop offset="1" stop-color="#A70FCD" stop-opacity="0.67"/>
</linearGradient>
</defs>
</svg>
