<svg width="30" height="28" viewBox="0 0 30 28" fill="none" xmlns="http://www.w3.org/2000/svg">
<path d="M12.6684 11.9149C11.6774 12.8482 11.1211 14.1134 11.1219 15.4323C11.1226 16.7512 11.6803 18.0159 12.6724 18.9483L16.4138 22.4644C17.4062 23.3968 18.7519 23.9202 20.1547 23.9196C21.5574 23.9189 22.9025 23.3943 23.8939 22.461C24.8853 21.5277 25.4418 20.2623 25.441 18.9431C25.4403 17.6239 24.8823 16.3589 23.8899 15.4265L22.0192 13.669" stroke="#A3A0A0" stroke-width="2" stroke-linecap="round" stroke-linejoin="round"/>
<path d="M16.4098 15.4299C17.4008 14.4967 17.957 13.2315 17.9563 11.9126C17.9555 10.5936 17.3978 9.32895 16.4058 8.39659L12.6644 4.88047C11.6719 3.94808 10.3263 3.42463 8.92352 3.42526C7.52073 3.4259 6.1757 3.95056 5.18431 4.88384C4.19292 5.81711 3.63638 7.08255 3.63713 8.40177C3.63787 9.72099 4.19585 10.9859 5.18829 11.9183L7.05901 13.6758" stroke="#A3A0A0" stroke-width="2" stroke-linecap="round" stroke-linejoin="round"/>
</svg>
