<svg width="30" height="30" viewBox="0 0 30 30" fill="none" xmlns="http://www.w3.org/2000/svg">
<path d="M28.001 6.93704C27.044 7.36204 26.016 7.64804 24.937 7.77704C26.039 7.11704 26.884 6.07204 27.282 4.82604C26.252 5.43704 25.11 5.88104 23.894 6.12104C22.921 5.08404 21.535 4.43604 20.001 4.43604C17.055 4.43604 14.667 6.82504 14.667 9.77004C14.667 10.188 14.715 10.596 14.805 10.985C10.372 10.763 6.442 8.63904 3.81 5.41104C3.352 6.19904 3.089 7.11504 3.089 8.09404C3.089 9.94404 4.03 11.577 5.461 12.533C4.587 12.505 3.764 12.265 3.045 11.866C3.045 11.889 3.045 11.91 3.045 11.933C3.045 14.518 4.883 16.674 7.324 17.163C6.877 17.285 6.405 17.35 5.918 17.35C5.575 17.35 5.24 17.316 4.915 17.255C5.594 19.374 7.564 20.917 9.898 20.96C8.073 22.391 5.773 23.244 3.273 23.244C2.843 23.244 2.418 23.219 2 23.169C4.361 24.682 7.164 25.565 10.177 25.565C19.989 25.565 25.353 17.437 25.353 10.388C25.353 10.157 25.348 9.92704 25.338 9.69804C26.381 8.94503 27.286 8.00604 28.001 6.93704Z" fill="#DE55A1"/>
</svg>
